<svg xmlns="http://www.w3.org/2000/svg" width="379.955" height="380.251" viewBox="0 0 379.955 380.251" overflow="visible">
  <g transform="matrix(2.17444 0 0 2.17437 -218.687 -223.172)">
    <linearGradient id="a" x1="187.947" x2="187.947" y1="123.859" y2="258.865" gradientUnits="userSpaceOnUse">
      <stop offset="0" stop-color="#BF0000"/>
      <stop offset="1" stop-color="#8F0000"/>
    </linearGradient>
    <path fill="url(#a)" d="M100.572 108.605v7.715c3.226 0 5.85 2.625 5.85 5.85 0 3.227-2.624 5.852-5.85 5.852v7.715c3.226 0 5.85 2.625 5.85 5.85 0 3.227-2.624 5.852-5.85 5.852v7.71c3.226 0 5.85 2.62 5.85 5.85 0 3.23-2.624 5.85-5.85 5.85v7.71c3.226 0 5.85 2.62 5.85 5.85 0 3.224-2.624 5.85-5.85 5.85v7.712c3.226 0 5.85 2.623 5.85 5.85 0 3.227-2.624 5.852-5.85 5.852v7.712c3.226 0 5.85 2.62 5.85 5.85 0 3.225-2.624 5.85-5.85 5.85v7.715c3.226 0 5.85 2.624 5.85 5.85 0 3.228-2.624 5.853-5.85 5.853v7.713c3.226 0 5.85 2.623 5.85 5.85 0 3.227-2.624 5.85-5.85 5.85v7.72c1.54 0 3.048.624 4.138 1.714 1.088 1.086 1.713 2.594 1.713 4.135h7.715c0-3.228 2.625-5.85 5.85-5.85 3.227 0 5.852 2.622 5.852 5.85h7.715c0-3.228 2.625-5.85 5.85-5.85 3.227 0 5.852 2.622 5.852 5.85h7.715c0-3.228 2.625-5.85 5.85-5.85 3.227 0 5.852 2.622 5.852 5.85h7.715c0-3.228 2.62-5.85 5.85-5.85 3.22 0 5.85 2.622 5.85 5.85h7.71c0-3.228 2.62-5.85 5.85-5.85 3.22 0 5.85 2.622 5.85 5.85h7.71c0-3.228 2.62-5.85 5.85-5.85 3.22 0 5.85 2.622 5.85 5.85h7.71c0-3.228 2.623-5.85 5.85-5.85 3.225 0 5.85 2.622 5.85 5.85h7.715c0-3.228 2.626-5.85 5.85-5.85 3.23 0 5.853 2.622 5.853 5.85h7.72c0-1.54.625-3.05 1.715-4.138 1.09-1.09 2.594-1.714 4.135-1.714v-7.716c-3.224 0-5.85-2.626-5.85-5.85 0-3.23 2.627-5.85 5.854-5.85V244.5c-3.23 0-5.854-2.628-5.854-5.855s2.63-5.85 5.856-5.85v-7.71c-3.228 0-5.853-2.626-5.853-5.853 0-3.225 2.628-5.85 5.855-5.85v-7.71c-3.226 0-5.85-2.624-5.85-5.85 0-3.228 2.625-5.85 5.852-5.85v-7.716c-3.23 0-5.855-2.623-5.855-5.85 0-3.223 2.627-5.85 5.854-5.85v-7.71c-3.23 0-5.854-2.626-5.854-5.855 0-3.23 2.626-5.85 5.853-5.85v-7.713c-3.23 0-5.854-2.626-5.854-5.853 0-3.224 2.627-5.85 5.854-5.85v-7.714c-3.23 0-5.855-2.625-5.855-5.85 0-3.228 2.626-5.85 5.853-5.85v-7.72c-1.54 0-3.05-.627-4.14-1.715-1.09-1.09-1.714-2.6-1.714-4.14h-7.71c0 3.227-2.625 5.852-5.85 5.852-3.227 0-5.85-2.626-5.85-5.853h-7.716c0 3.226-2.624 5.85-5.85 5.85-3.226 0-5.85-2.625-5.85-5.852h-7.715c0 3.228-2.63 5.853-5.856 5.853s-5.85-2.626-5.85-5.853h-7.71c0 3.226-2.622 5.85-5.85 5.85-3.224 0-5.85-2.625-5.85-5.852h-7.71c0 3.23-2.625 5.853-5.85 5.853-3.23 0-5.852-2.624-5.852-5.85h-7.714c0 3.23-2.625 5.854-5.85 5.854-3.227 0-5.852-2.626-5.852-5.853h-7.713c0 3.228-2.627 5.85-5.85 5.85-3.23 0-5.85-2.623-5.85-5.85h-7.72c0 3.227-2.624 5.85-5.85 5.85-3.226 0-5.85-2.624-5.85-5.85h-7.72c0 1.54-.624 3.05-1.71 4.14-1.09 1.086-2.6 1.71-4.14 1.71z"/>
    <path fill="#fff" d="M249.444 172.68H162.24l4.55-21.292h53.15l4.876-22.918h-76.394l-24.056 113.454h23.08l10.564-49.576h55.36l-48.104 47.625 8.452 14.953c3.9-2.6 10.24-2.926 14.628-2.926 7.803 0 15.442 2.602 23.404 2.602 7.3 0 14.775-.488 26.967-6.34l4.26-19.992c-8.29 3.412-20.558 6.664-31.227 6.664-4.386 0-8.45-.975-12.676-1.625l46.63-45.35 3.74-15.28z"/>
  </g>
<g>
  <path fill="#fff" d="M283.5,243.7c1.1-2.1,2.8-4.7,5.2-7.8,2.9-3.8,6-5.9,8.9-6.4,2.7-0.5,5.6,0.2,8.2,2.2,2.7,2.1,4.2,4.5,4.5,7.2,0.6,3.7-0.9,7.9-3.8,11.6-0.9,1.1-1.8,2.2-2.7,2.9l11.9,9.3-3,3.8-29.2-22.8zm17.3,7.3c0.9-0.7,1.8-1.6,2.8-2.9,3.6-4.6,3.6-9.2-0.5-12.4-3.9-3.1-8-1.8-11.3,2.5-1.3,1.7-2.2,3-2.5,3.8l11.5,9z"/>
  <path fill="#fff" d="M315.7,232.5c-2.5-2-4.7-3.6-6.8-5l2.6-3.4,4.3,3.1,0.1-0.2c-2.1-3.2-2.1-6.9-0.1-9.5,0.3-0.4,0.6-0.7,1-1l3.6,2.8c-0.4,0.3-0.7,0.7-1.2,1.2-2.1,2.7-1.6,6.3,0.9,9.1,0.5,0.5,1,1.1,1.7,1.6l11.3,8.8-3,3.8-14.4-11.3z"/>
  <path fill="#fff" d="M345.4,202.3c7.9,6.1,7,14.3,3,19.4-4.5,5.8-12.2,6.9-18.9,1.7-7.1-5.6-7.7-13.5-3.1-19.4,4.9-6.1,12.5-6.7,19-1.7zm-12.9,17.1c4.7,3.6,10.3,3.7,13.2-0.1,2.9-3.7,1.6-9.2-3.2-12.9-3.6-2.8-9.6-4.6-13.1,0-3.6,4.6-1,9.8,3.1,13z"/>
</g>
</svg>
